<svg width="24" height="23" viewBox="0 0 24 23" fill="none" xmlns="http://www.w3.org/2000/svg">
<path d="M18.784 18.1579C19.4482 18.1579 20.0853 18.4129 20.555 18.867C21.0247 19.321 21.2885 19.9368 21.2885 20.5789C21.2885 21.221 21.0247 21.8368 20.555 22.2909C20.0853 22.7449 19.4482 23 18.784 23C18.1198 23 17.4827 22.7449 17.013 22.2909C16.5433 21.8368 16.2795 21.221 16.2795 20.5789C16.2795 19.9368 16.5433 19.321 17.013 18.867C17.4827 18.4129 18.1198 18.1579 18.784 18.1579ZM18.784 19.3684C18.4519 19.3684 18.1334 19.4959 17.8985 19.7229C17.6637 19.95 17.5317 20.2579 17.5317 20.5789C17.5317 20.9 17.6637 21.2079 17.8985 21.4349C18.1334 21.6619 18.4519 21.7894 18.784 21.7894C19.1161 21.7894 19.4346 21.6619 19.6695 21.4349C19.9043 21.2079 20.0363 20.9 20.0363 20.5789C20.0363 20.2579 19.9043 19.95 19.6695 19.7229C19.4346 19.4959 19.1161 19.3684 18.784 19.3684ZM7.5136 18.1579C8.17784 18.1579 8.81488 18.4129 9.28457 18.867C9.75426 19.321 10.0181 19.9368 10.0181 20.5789C10.0181 21.221 9.75426 21.8368 9.28457 22.2909C8.81488 22.7449 8.17784 23 7.5136 23C6.84936 23 6.21232 22.7449 5.74263 22.2909C5.27294 21.8368 5.00907 21.221 5.00907 20.5789C5.00907 19.9368 5.27294 19.321 5.74263 18.867C6.21232 18.4129 6.84936 18.1579 7.5136 18.1579ZM7.5136 19.3684C7.18148 19.3684 6.86296 19.4959 6.62811 19.7229C6.39327 19.95 6.26133 20.2579 6.26133 20.5789C6.26133 20.9 6.39327 21.2079 6.62811 21.4349C6.86296 21.6619 7.18148 21.7894 7.5136 21.7894C7.84572 21.7894 8.16424 21.6619 8.39908 21.4349C8.63393 21.2079 8.76586 20.9 8.76586 20.5789C8.76586 20.2579 8.63393 19.95 8.39908 19.7229C8.16424 19.4959 7.84572 19.3684 7.5136 19.3684ZM21.2885 3.63157H4.09491L7.28819 10.8947H17.5317C17.945 10.8947 18.3081 10.701 18.5335 10.4105L22.2903 5.56841C22.4531 5.36262 22.5408 5.10841 22.5408 4.8421C22.5408 4.52105 22.4089 4.21314 22.174 3.98613C21.9392 3.75911 21.6206 3.63157 21.2885 3.63157ZM17.5317 12.1052H7.3508L6.38656 13.9937L6.26133 14.5263C6.26133 14.8473 6.39327 15.1552 6.62811 15.3823C6.86296 15.6093 7.18148 15.7368 7.5136 15.7368H21.2885V16.9473H7.5136C6.84936 16.9473 6.21232 16.6923 5.74263 16.2382C5.27294 15.7842 5.00907 15.1684 5.00907 14.5263C5.00869 14.1156 5.11643 13.7115 5.32213 13.3521L6.22376 11.5726L1.67804 1.21052H0V0H2.50453L3.56896 2.42105H21.2885C21.9528 2.42105 22.5898 2.67612 23.0595 3.13016C23.5292 3.58419 23.7931 4.2 23.7931 4.8421C23.7931 5.44736 23.5802 5.95578 23.2295 6.36736L19.5854 11.0763C19.1346 11.6937 18.3833 12.1052 17.5317 12.1052Z" fill="#594D4D"/>
</svg>
