<svg width="27" height="25" viewBox="0 0 27 25" fill="none" xmlns="http://www.w3.org/2000/svg">
<path d="M12.375 17.7083H14.625V11.4583H12.375V17.7083ZM13.5 9.37498C13.8187 9.37498 14.0861 9.27498 14.3021 9.07498C14.5181 8.87498 14.6257 8.62776 14.625 8.33331C14.625 8.03817 14.517 7.79061 14.301 7.59061C14.085 7.39061 13.818 7.29095 13.5 7.29165C13.1812 7.29165 12.9139 7.39165 12.6979 7.59165C12.4819 7.79165 12.3742 8.03887 12.375 8.33331C12.375 8.62845 12.483 8.87602 12.699 9.07602C12.915 9.27602 13.182 9.37567 13.5 9.37498ZM13.5 22.9166C10.8937 22.309 8.742 20.9243 7.04475 18.7625C5.3475 16.6007 4.49925 14.2007 4.5 11.5625V5.20831L13.5 2.08331L22.5 5.20831V11.5625C22.5 14.2014 21.6514 16.6017 19.9541 18.7635C18.2569 20.9253 16.1055 22.3097 13.5 22.9166Z" fill="black"/>
</svg>
