<svg width="35" height="32" viewBox="0 0 35 32" fill="none" xmlns="http://www.w3.org/2000/svg">
<path d="M5.83337 24C5.83337 22.5855 6.44796 21.2289 7.54192 20.2287C8.63588 19.2285 10.1196 18.6666 11.6667 18.6666H23.3334C24.8805 18.6666 26.3642 19.2285 27.4582 20.2287C28.5521 21.2289 29.1667 22.5855 29.1667 24C29.1667 24.7072 28.8594 25.3855 28.3124 25.8856C27.7655 26.3857 27.0236 26.6666 26.25 26.6666H8.75004C7.97649 26.6666 7.23463 26.3857 6.68765 25.8856C6.14066 25.3855 5.83337 24.7072 5.83337 24Z" stroke="black" stroke-linejoin="round"/>
<path d="M17.5 13.3333C19.9162 13.3333 21.875 11.5425 21.875 9.33331C21.875 7.12417 19.9162 5.33331 17.5 5.33331C15.0838 5.33331 13.125 7.12417 13.125 9.33331C13.125 11.5425 15.0838 13.3333 17.5 13.3333Z" stroke="black"/>
</svg>
