<svg width="16" height="18" viewBox="0 0 16 18" fill="none" xmlns="http://www.w3.org/2000/svg">
<path fill-rule="evenodd" clip-rule="evenodd" d="M7.99999 15.8914L8.48075 15.282C9.02627 14.5791 9.51694 13.9123 9.95351 13.278L10.3139 12.7431C11.8187 10.4623 12.5714 8.65197 12.5714 7.31397C12.5714 4.45797 10.5249 2.14282 7.99999 2.14282C5.47503 2.14282 3.42856 4.45797 3.42856 7.31397C3.42856 8.65197 4.18132 10.4623 5.68608 12.7431L6.04646 13.278C6.66927 14.1757 7.32088 15.0469 7.99999 15.8914Z" stroke="black" stroke-linecap="round" stroke-linejoin="round"/>
<path d="M7.99998 9.42854C9.05195 9.42854 9.90474 8.46915 9.90474 7.28568C9.90474 6.10221 9.05195 5.14282 7.99998 5.14282C6.94801 5.14282 6.09521 6.10221 6.09521 7.28568C6.09521 8.46915 6.94801 9.42854 7.99998 9.42854Z" stroke="black" stroke-linecap="round" stroke-linejoin="round"/>
</svg>
