<svg width="24" height="23" viewBox="0 0 24 23" fill="none" xmlns="http://www.w3.org/2000/svg">
<path d="M18.784 18.1579C19.4483 18.1579 20.0853 18.413 20.555 18.867C21.0247 19.3211 21.2886 19.9369 21.2886 20.579C21.2886 21.2211 21.0247 21.8369 20.555 22.2909C20.0853 22.7449 19.4483 23 18.784 23C18.1198 23 17.4828 22.7449 17.0131 22.2909C16.5434 21.8369 16.2795 21.2211 16.2795 20.579C16.2795 19.9369 16.5434 19.3211 17.0131 18.867C17.4828 18.413 18.1198 18.1579 18.784 18.1579ZM18.784 19.3684C18.4519 19.3684 18.1334 19.496 17.8986 19.723C17.6637 19.95 17.5318 20.2579 17.5318 20.579C17.5318 20.9 17.6637 21.2079 17.8986 21.4349C18.1334 21.662 18.4519 21.7895 18.784 21.7895C19.1162 21.7895 19.4347 21.662 19.6695 21.4349C19.9044 21.2079 20.0363 20.9 20.0363 20.579C20.0363 20.2579 19.9044 19.95 19.6695 19.723C19.4347 19.496 19.1162 19.3684 18.784 19.3684ZM7.51362 18.1579C8.17786 18.1579 8.8149 18.413 9.2846 18.867C9.75429 19.3211 10.0182 19.9369 10.0182 20.579C10.0182 21.2211 9.75429 21.8369 9.2846 22.2909C8.8149 22.7449 8.17786 23 7.51362 23C6.84937 23 6.21233 22.7449 5.74264 22.2909C5.27295 21.8369 5.00908 21.2211 5.00908 20.579C5.00908 19.9369 5.27295 19.3211 5.74264 18.867C6.21233 18.413 6.84937 18.1579 7.51362 18.1579ZM7.51362 19.3684C7.1815 19.3684 6.86298 19.496 6.62813 19.723C6.39328 19.95 6.26135 20.2579 6.26135 20.579C6.26135 20.9 6.39328 21.2079 6.62813 21.4349C6.86298 21.662 7.1815 21.7895 7.51362 21.7895C7.84574 21.7895 8.16426 21.662 8.39911 21.4349C8.63395 21.2079 8.76589 20.9 8.76589 20.579C8.76589 20.2579 8.63395 19.95 8.39911 19.723C8.16426 19.496 7.84574 19.3684 7.51362 19.3684ZM21.2886 3.63158H4.09492L7.28821 10.8947H17.5318C17.945 10.8947 18.3082 10.7011 18.5336 10.4105L22.2904 5.56843C22.4532 5.36264 22.5409 5.10843 22.5409 4.84211C22.5409 4.52106 22.4089 4.21316 22.1741 3.98614C21.9392 3.75912 21.6207 3.63158 21.2886 3.63158ZM17.5318 12.1053H7.35082L6.38658 13.9937L6.26135 14.5263C6.26135 14.8474 6.39328 15.1553 6.62813 15.3823C6.86298 15.6093 7.1815 15.7369 7.51362 15.7369H21.2886V16.9474H7.51362C6.84937 16.9474 6.21233 16.6923 5.74264 16.2383C5.27295 15.7842 5.00908 15.1684 5.00908 14.5263C5.00871 14.1156 5.11644 13.7115 5.32215 13.3521L6.22378 11.5726L1.67804 1.21053H0V0H2.50454L3.56897 2.42105H21.2886C21.9528 2.42105 22.5899 2.67613 23.0596 3.13017C23.5293 3.5842 23.7931 4.20001 23.7931 4.84211C23.7931 5.44737 23.5802 5.9558 23.2296 6.36737L19.5855 11.0763C19.1347 11.6937 18.3833 12.1053 17.5318 12.1053Z" fill="#000AFC"/>
</svg>
