<svg width="15" height="16" viewBox="0 0 15 16" fill="none" xmlns="http://www.w3.org/2000/svg">
<path d="M13.125 14L10.4106 11.1047M10.4106 11.1047C10.8749 10.6094 11.2432 10.0215 11.4945 9.37438C11.7458 8.72729 11.8751 8.03375 11.8751 7.33335C11.8751 6.63295 11.7458 5.9394 11.4945 5.29232C11.2432 4.64523 10.8749 4.05727 10.4106 3.56202C9.94633 3.06676 9.39512 2.6739 8.78847 2.40586C8.18183 2.13783 7.53163 1.99988 6.87501 1.99988C6.21838 1.99988 5.56818 2.13783 4.96154 2.40586C4.3549 2.6739 3.80369 3.06676 3.33938 3.56202C2.40168 4.56224 1.87488 5.91882 1.87488 7.33335C1.87488 8.74787 2.40168 10.1045 3.33938 11.1047C4.27709 12.1049 5.54889 12.6668 6.87501 12.6668C8.20112 12.6668 9.47293 12.1049 10.4106 11.1047Z" stroke="black" stroke-linecap="round" stroke-linejoin="round"/>
</svg>
