<svg width="13" height="11" viewBox="0 0 13 11" fill="none" xmlns="http://www.w3.org/2000/svg">
<path d="M13 5.05556C13 5.11385 12.9702 5.16976 12.9172 5.21098C12.8642 5.2522 12.7923 5.27536 12.7174 5.27536H6.78261V9.8913C6.78261 9.9496 6.75283 10.0055 6.69983 10.0467C6.64684 10.088 6.57495 10.1111 6.5 10.1111C6.42505 10.1111 6.35316 10.088 6.30017 10.0467C6.24717 10.0055 6.21739 9.9496 6.21739 9.8913V5.27536H0.282609C0.207656 5.27536 0.135774 5.2522 0.0827742 5.21098C0.0297748 5.16976 0 5.11385 0 5.05556C0 4.99726 0.0297748 4.94135 0.0827742 4.90013C0.135774 4.85891 0.207656 4.83575 0.282609 4.83575H6.21739V0.219807C6.21739 0.16151 6.24717 0.105602 6.30017 0.06438C6.35316 0.0231582 6.42505 0 6.5 0C6.57495 0 6.64684 0.0231582 6.69983 0.06438C6.75283 0.105602 6.78261 0.16151 6.78261 0.219807V4.83575H12.7174C12.7923 4.83575 12.8642 4.85891 12.9172 4.90013C12.9702 4.94135 13 4.99726 13 5.05556Z" fill="black"/>
</svg>
